<svg xmlns="http://www.w3.org/2000/svg" width="79.5" height="90.8" viewBox="0 0 79.5 90.8"><g id="Layer_2" data-name="Layer 2"><g id="Layer_3" data-name="Layer 3"><path d="M44.5,51.9a38.9,38.9,0,0,0,4.6-5.3c10-14.1,8.4-34-7.7-42.7A33.4,33.4,0,0,0,24.5,0,32.8,32.8,0,0,0,1.1,11.3L0,12.6l1.1,1.2A43.4,43.4,0,0,0,6,18.5c6.7,5.3,14.2,7.2,22.7,6.5s17.2-3.8,22.7,5.3c.1.1.2.2.2.3a32.1,32.1,0,0,1-8.5,19.2,43.8,43.8,0,0,1-4.5,4.1l1.1,1.8a23.2,23.2,0,0,1,21.3-1A23.2,23.2,0,0,0,44.5,51.9ZM21.5,22A29.1,29.1,0,0,1,5.2,12.6,29.1,29.1,0,0,1,26.4,4.2l-8.6,5.9-1.3.9.9,1.4a101.8,101.8,0,0,1,5.3,9.8Zm25.9,2.6c-3.3-2.4-7.6-2.6-11.5-2.5s-6.2.4-9.3.3A79.3,79.3,0,0,0,21.1,12c3.5-2.5,7.1-4.9,10.7-7.1l1.8.4c7.7,2.2,14.3,7.4,16.8,15a27.7,27.7,0,0,1,1.3,9.4A14.2,14.2,0,0,0,47.4,24.6Z" fill="#30bf97"/><path d="M78.4,77a36.3,36.3,0,0,0-4.9-4.7c-6.7-5.3-14.2-7.2-22.7-6.5s-17.2,3.8-22.7-5.3l-.2-.3A31.7,31.7,0,0,1,36.5,41a28.5,28.5,0,0,1,4.4-4.1l-1.1-1.8a22.9,22.9,0,0,1-21.3.9A22.8,22.8,0,0,0,35,38.9a38,38,0,0,0-4.6,5.2c-10,14.1-8.3,34.1,7.8,42.8A34.9,34.9,0,0,0,55,90.8,32.4,32.4,0,0,0,78.4,79.5l1.1-1.3ZM45.9,85.4c-7.7-2.1-14.2-7.3-16.7-14.9A23.8,23.8,0,0,1,27.9,61a13.3,13.3,0,0,0,4.2,5.2c3.3,2.4,7.6,2.6,11.5,2.4l7.9-.3a36.8,36.8,0,0,0,4.6,7l2.3,3.1c-3.7,2.6-7.4,5-11.2,7.4Zm6.5,1.1q4.8-3,9.3-6.3l1.3-.9-.8-1.4c-1.1-1.6-2.2-3.2-3.4-4.7a44.8,44.8,0,0,1-3.3-4.7l2.5.3a28.8,28.8,0,0,1,16.4,9.4A29.4,29.4,0,0,1,52.4,86.5Z" fill="#30bf97"/><path d="M42.5,14.5c-.1,4.3-5,6.9-8.4,4.1a5.3,5.3,0,0,1,0-8.2,5.2,5.2,0,0,1,8.4,4.1Zm0,0a3.5,3.5,0,0,0-4.3-3.4,3.6,3.6,0,0,0,0,6.9,3.5,3.5,0,0,0,4.3-3.5Z" fill="#30bf97"/><path d="M39.4,76.6A3.5,3.5,0,0,0,43.7,80a3.6,3.6,0,0,0,0-6.9,3.5,3.5,0,0,0-4.3,3.5Zm0,0a5.2,5.2,0,0,1,8.4-4.1,5.2,5.2,0,0,1,0,8.1,5.2,5.2,0,0,1-8.4-4Z" fill="#30bf97"/></g></g></svg>