<svg xmlns="http://www.w3.org/2000/svg" width="295.5" height="936.9" viewBox="0 0 295.5 936.9"><g id="Layer_2" data-name="Layer 2"><g id="profile"><path d="M286.7,311.8s-104.3-76.9-103.1-94,9.1-24,7.5-30S102,7,82.2,12.1C83.6,8,0,0,0,0V900H.7c.4-14.3,6.1-30.5,24.3-44.2,7.4-7.2,18.3-5.2,18.3-5.2,19.1,26.7,37.1,41.5,53.5,49.4,57.1,27.5,94.9-28.8,93.8,36.9,17.7-11.1,31.7-23.6,42.4-36.9,43.2-53.5,34.3-120.6,6.1-170.9C221.6,698,281,604,241.6,566.2c30.3-26.2,2.9-75,2.9-75,22-19.3,17.3-40.2,17.3-40.2-15.2-8.5-25.2-55.8-25.2-55.8C326.7,345.9,286.7,311.8,286.7,311.8ZM206,860c3-15.1-7.4-29.8-19.8-38.5s-27.1-13.6-39.6-22.1a55.6,55.6,0,0,1-14.9-14.9h0c-4.6-7-7.2-15-5.8-23.3a64.4,64.4,0,0,0,2.9,33.4c6.8,19.3,22,35.7,41.2,41.9-16.3,8.6-36.9,7.5-52.5-2.2a65.1,65.1,0,0,1-6-4.3c-15.9-13.7-22.8-37.4-16.6-57.7,4.9-16.3,17.4-33.2,10.2-48.7-4.7-10.2-16.2-14.7-25.8-20.1a89.1,89.1,0,0,1-14.2-10.1C41.4,672.9,28,639.8,32,608.1c1.4,22.7,13.9,44.3,32.5,56.6-8-6.1-16.4-47.4-10.2-55.2,7.6-9.6,19,8,28,18a27.1,27.1,0,0,0,5.7,5.3c14,9,30.4,14.7,42.5,26.2s18.3,26.9,25.4,41.9c2,4.3,4.1,8.5,6.3,12.5,13.6,24.4,34.3,44,47.3,68.6S225.9,840.8,206,860ZM188.6,613.5a76.5,76.5,0,0,1,6.9,15.8,78.3,78.3,0,0,1-4.1,55.5,90.7,90.7,0,0,0-12.6-37.6,89.7,89.7,0,0,0-42-36.7,19.1,19.1,0,0,1,23.7-6.3L113.7,547c2.5,2.9,28.2-11.3,34.3-11,11.9.7,26.3,13.7,34.6,21.6a120.3,120.3,0,0,1,16.6,19.7,115.4,115.4,0,0,1,19.3,53.1,79.6,79.6,0,0,0-25.7-31.2,75.1,75.1,0,0,0-31.3-13.3A74.8,74.8,0,0,1,188.6,613.5Zm49.2-151a37.8,37.8,0,0,0-17.9-4.3,33.4,33.4,0,0,0-17.7,5.6c-9.4,6.5-15.1,17.2-23.4,25.1a48.7,48.7,0,0,1-40.1,12.8,47,47,0,0,1-18-6.5,49.3,49.3,0,0,1-7.8-5.8l1.2-4.3a43.2,43.2,0,0,0,16.7,3.7c13.2.3,26.7-5.2,34.8-15.9a41.7,41.7,0,0,1-42.3-3.4c9.4,3.9,20.5,0,28.4-6.6,13.8-11.8,25.7-47.1,47.3-45.7,6.8.4,12.5,5.3,17.6,11.8a107.6,107.6,0,0,1,8.1,12.2C229.5,449.3,233.7,457.6,237.8,462.5Z" fill="#012623"/><path d="M139.2,501.7a50.5,50.5,0,0,0,41-12.8c8.5-7.9,14.3-18.6,23.9-25.1a34.7,34.7,0,0,1,18.1-5.6,39.1,39.1,0,0,1,18.3,4.3c-4.2-4.9-8.5-13.2-13.4-21.3a108.1,108.1,0,0,0-8.2-12.2c-5.3-6.5-11.2-11.4-18.1-11.8-22.1-1.4-34.2,33.9-48.4,45.7-8,6.6-19.3,10.5-29,6.6a43.9,43.9,0,0,0,25.8,7.6,42.2,42.2,0,0,0,17.5-4.3c-8.3,10.8-22.1,16.3-35.6,16a45.2,45.2,0,0,1-17.1-3.7l-1.2,4.3a56.1,56.1,0,0,0,8,5.8A48.3,48.3,0,0,0,139.2,501.7Zm81.6,128.7a114.4,114.4,0,0,0-19.7-53.1A123.4,123.4,0,0,0,184,557.6c-8.5-7.9-23.2-20.9-35.4-21.6-6.1-.3-32.4,13.9-35,11,16,19,31.9,38.1,47.9,57.2-8.2-4-19.1-1.2-24.3,6.3a91.6,91.6,0,0,1,43,36.7,88.3,88.3,0,0,1,12.9,37.6,77.2,77.2,0,0,0,4.1-55.5,71.8,71.8,0,0,0-7-15.8,76.6,76.6,0,0,0-27.7-27.7,80.4,80.4,0,0,1,58.3,44.6Zm-57.6,83c-2.3-4-4.4-8.2-6.4-12.5-7.3-15-13.9-30.6-26-41.9s-29.1-17.2-43.5-26.2a33.1,33.1,0,0,1-5.8-5.3c-9.2-10-20.8-27.6-28.6-18-6.3,7.8,2.2,49.1,10.5,55.2a73.9,73.9,0,0,1-33.3-56.6c-4.1,31.7,9.6,64.8,33.8,85.3a96.5,96.5,0,0,0,14.5,10.1c9.9,5.4,21.6,9.9,26.4,20.1,7.4,15.5-5.4,32.4-10.5,48.7-6.2,20.3.8,44,17.1,57.7a66.7,66.7,0,0,0,6.1,4.3c15.9,9.7,37.1,10.8,53.7,2.2-19.7-6.2-35.2-22.6-42.2-41.9a63.4,63.4,0,0,1-2.9-33.4c-1.4,8.3,1.2,16.3,5.9,23.3h0a57.1,57.1,0,0,0,15.3,14.9c12.7,8.5,27.8,13.4,40.4,22.1S211,844.9,208,860c20.3-19.2,17-53.4,3.6-78S177.1,737.8,163.2,713.4Z" fill="#fff" fill-rule="evenodd"/><path d="M194.5,599.2a79.5,79.5,0,0,0-32-13.4,76.6,76.6,0,0,1,27.7,27.7,71.8,71.8,0,0,1,7,15.8,77.2,77.2,0,0,1-4.1,55.5,88.3,88.3,0,0,0-12.9-37.6,91.6,91.6,0,0,0-43-36.7c5.2-7.5,16.1-10.3,24.3-6.3-16-19.1-31.9-38.2-47.9-57.2,2.6,2.9,28.9-11.3,35-11,12.2.7,26.9,13.7,35.4,21.6a123.4,123.4,0,0,1,17.1,19.7,114.4,114.4,0,0,1,19.7,53.1A80.3,80.3,0,0,0,194.5,599.2Z" fill="#30bf97"/><path d="M208,860c3-15.1-7.6-29.8-20.3-38.5s-27.7-13.6-40.4-22.1A57.1,57.1,0,0,1,132,784.5h0c-4.7-7-7.3-15-5.9-23.3a63.4,63.4,0,0,0,2.9,33.4c7,19.3,22.5,35.7,42.2,41.9-16.6,8.6-37.8,7.5-53.7-2.2a66.7,66.7,0,0,1-6.1-4.3c-16.3-13.7-23.3-37.4-17.1-57.7,5.1-16.3,17.9-33.2,10.5-48.7-4.8-10.2-16.5-14.7-26.4-20.1a96.5,96.5,0,0,1-14.5-10.1C39.7,672.9,26,639.8,30.1,608.1a73.9,73.9,0,0,0,33.3,56.6c-8.3-6.1-16.8-47.4-10.5-55.2,7.8-9.6,19.4,8,28.6,18a33.1,33.1,0,0,0,5.8,5.3c14.4,9,31.1,14.7,43.5,26.2s18.7,26.9,26,41.9c2,4.3,4.1,8.5,6.4,12.5,13.9,24.4,35.1,44,48.4,68.6S228.3,840.8,208,860Z" fill="#30bf97"/><path d="M240.5,462.5a39.1,39.1,0,0,0-18.3-4.3,34.7,34.7,0,0,0-18.1,5.6c-9.6,6.5-15.4,17.2-23.9,25.1a50.5,50.5,0,0,1-41,12.8,48.3,48.3,0,0,1-18.4-6.5,56.1,56.1,0,0,1-8-5.8l1.2-4.3a45.2,45.2,0,0,0,17.1,3.7c13.5.3,27.3-5.2,35.6-16a42.2,42.2,0,0,1-17.5,4.3,43.9,43.9,0,0,1-25.8-7.6c9.7,3.9,21,0,29-6.6,14.2-11.8,26.3-47.1,48.4-45.7,6.9.4,12.8,5.3,18.1,11.8a108.1,108.1,0,0,1,8.2,12.2C232,449.3,236.3,457.6,240.5,462.5Z" fill="#30bf97"/></g></g></svg>