<?xml version="1.0" encoding="UTF-8"?><svg id="Layer_2" xmlns="http://www.w3.org/2000/svg" viewBox="0 0 79.53 90.77"><defs><style>.cls-1{fill:#30bf97;}</style></defs><g id="Layer_3"><g><path class="cls-1" d="M44.49,51.87c1.7-1.59,3.24-3.35,4.6-5.25,10.02-14.08,8.37-34.02-7.72-42.71C36.23,1.14,30.33-.16,24.49,.02,15.56,.2,6.96,4.57,1.14,11.28l-1.14,1.31,1.12,1.22c1.5,1.66,3.15,3.25,4.9,4.65,6.68,5.34,14.22,7.25,22.66,6.52,8.74-.63,17.25-3.81,22.76,5.32,.05,.09,.11,.19,.16,.28-.52,7.08-3.7,14.02-8.54,19.22-1.36,1.49-2.86,2.85-4.46,4.09l1.09,1.77c6.42-3.75,14.6-4.04,21.35-.92-4.91-3.04-10.93-3.97-16.55-2.86ZM21.49,21.96c-6.42-1.05-11.99-4.62-16.33-9.34C10.94,6.95,18.54,4.01,26.4,4.24c-2.89,1.88-5.76,3.84-8.56,5.85l-1.3,.94,.85,1.36c1.94,3.13,3.73,6.41,5.33,9.77-.41-.05-.82-.12-1.22-.19Zm25.93,2.65c-3.29-2.41-7.59-2.63-11.51-2.48-3.07,.13-6.19,.38-9.28,.31-1.63-3.6-3.47-7.12-5.49-10.49,3.48-2.46,7.04-4.83,10.63-7.07,.63,.13,1.25,.29,1.88,.46,7.67,2.11,14.21,7.3,16.72,14.97,1.03,3.06,1.43,6.24,1.29,9.41-.96-2.01-2.41-3.84-4.24-5.12Z"/><path class="cls-1" d="M78.41,76.96c-1.5-1.66-3.15-3.25-4.9-4.64-6.68-5.34-14.22-7.25-22.66-6.52-8.74,.63-17.25,3.81-22.76-5.32-.05-.09-.11-.19-.16-.28,.52-7.08,3.7-14.02,8.54-19.22,1.36-1.49,2.85-2.85,4.46-4.09l-1.09-1.77c-6.42,3.75-14.6,4.04-21.35,.92,4.91,3.04,10.93,3.97,16.55,2.86-1.7,1.59-3.24,3.35-4.6,5.25-10.02,14.08-8.37,34.02,7.72,42.71,5.15,2.78,11.05,4.08,16.89,3.9,8.93-.18,17.53-4.55,23.34-11.27l1.14-1.31-1.12-1.22Zm-32.53,8.47c-7.67-2.11-14.21-7.3-16.72-14.97-1.03-3.06-1.43-6.25-1.29-9.42,.96,2.01,2.41,3.84,4.24,5.13,3.29,2.41,7.59,2.63,11.51,2.48,2.6-.11,5.24-.3,7.86-.32,1.24,2.58,2.95,4.82,4.6,6.99,.79,1.04,1.55,2.04,2.26,3.06-3.65,2.58-7.39,5.06-11.16,7.39-.44-.1-.87-.21-1.31-.33Zm6.55,1.09c3.13-2.02,6.24-4.13,9.26-6.31l1.3-.94-.85-1.36c-1.02-1.65-2.19-3.18-3.33-4.67-1.22-1.6-2.4-3.14-3.36-4.77,.87,.08,1.73,.19,2.58,.34,6.42,1.05,11.99,4.61,16.33,9.34-5.95,5.84-13.84,8.78-21.94,8.36Z"/><path class="cls-1" d="M42.46,14.54c-.01,4.28-4.94,6.84-8.38,4.08-2.56-2.06-2.56-6.11,0-8.17,3.45-2.77,8.38-.2,8.39,4.09h0Zm0,0c.02-2.26-2.11-4.02-4.3-3.43-3.4,.96-3.46,5.89,0,6.88,2.19,.58,4.32-1.19,4.3-3.44h0Z"/><path class="cls-1" d="M39.41,76.56c-.02,2.26,2.11,4.03,4.3,3.44,3.46-.99,3.4-5.91,0-6.88-2.19-.59-4.32,1.18-4.3,3.43h0Zm0,0c.01-4.29,4.94-6.86,8.39-4.09,2.56,2.06,2.55,6.11,0,8.17-3.44,2.76-8.37,.2-8.38-4.08h0Z"/></g></g></svg>