<?xml version="1.0" encoding="UTF-8"?><svg id="Layer_2" xmlns="http://www.w3.org/2000/svg" xmlns:xlink="http://www.w3.org/1999/xlink" viewBox="0 0 1614.34 1361"><defs><style>.cls-1{fill:none;}.cls-2{clip-path:url(#clippath);}.cls-3{fill:#201d1d;}.cls-4{fill:#1bb78d;}.cls-5{opacity:.2;}</style><clipPath id="clippath"><rect class="cls-1" y="97" width="1491" height="960"/></clipPath></defs><g id="Layer_7"><g class="cls-5"><g class="cls-2"><g><g><path class="cls-3" d="M1596.58,699.83c-13.59-16.63-32.13-24.43-52.44-29.83-19.22-5.1-40.69-9.35-54.53-24.86-6.75-7.56-11.31-17.35-12.48-27.45,2.77-4.16,5.35-8.4,7.76-12.49,1.44-2.44,9.14-16.32,3.86-12.81,1.06-1.54,2.09-3.09,3.09-4.65,3.17-4.91,6.6-9.93,8.81-15.35,.34-.83,2.41-5.8-.53-3.99-15.3,9.41-26.42,24.96-36.32,39.52-7.95,11.69-16.54,24.55-19.86,38.59-9.32,14.44-17.48,29.54-23.03,45.83-.65,1.9-1.24,3.82-1.81,5.75-1.67-.84-6.78,5.48-6.94,5.67-.5,.56-.82,.93-1.03,1.16-.84,.83-1.7,1.63-2.57,2.41-1.45,1.3-2.92,2.47-4.5,3.6-4.32,3.11-8.94,5.81-13.76,8.08-9.53,4.48-19.77,7.21-30.29,7.92-20.74,1.42-41.11-5.05-57.35-17.93-16.05-12.74-27.57-31.02-31.27-51.17-4.55-24.77,2.8-50.1,10.13-73.59,1.61-5.15,3.23-10.28,4.8-15.43,.79-.91,1.58-1.81,2.36-2.72,3.08-3.59,6.15-7.2,9.22-10.8,1.11-1.3,2.21-2.6,3.32-3.91,.42-.5,2.7-3.17,3.15-3.69,10.42-12.13,19.61-22.52,31.01-32.81,12.19-11,25.45-20.89,39.01-30.14,27.79-18.97,57.71-34.68,89.1-46.86,3.22-1.25,7.71-7.64,9.54-9.88,4.78-5.83,9.3-12.06,13.38-18.39,3.17-4.91,6.6-9.93,8.81-15.35,.52-1.27,2.44-5.15-.53-3.99-52.44,20.34-103.65,50.89-143.38,90.89-11.7,11.78-22.57,24.26-33.32,36.89-2,2.34-3.99,4.69-5.98,7.03-.37,.43-1.29,1.52-1.75,2.06-.78,.91-1.56,1.82-2.34,2.73-4.67,5.43-9.4,10.82-14.28,16.07-.41,.44-.83,.88-1.25,1.32,2.7-10.83,4.75-21.8,5.49-33.07,1.4-21.32-.96-42.98-6.64-63.58-11.59-41.99-37.5-79.37-73.82-103.86-32.67-22.03-72.08-33.46-111.39-32.58,25.59-24.58,48.76-51.63,69.68-80.39,1.9,1.28,3.82,2.53,5.78,3.72,26.08,15.71,56.03,23.44,82.79,37.82,26.49,14.23,47.1,36.3,59.31,63.72,13.16,29.54,16.61,64.9,5.57,95.7-.81,2.27-2.16,4.38,.53,3.99,2.54-.37,8.52-8.61,9.54-9.88,4.76-5.89,9.27-12.03,13.38-18.39,3.13-4.84,6.86-9.91,8.81-15.35,20.15-56.19,1.97-123.58-47.81-158.66-25-17.61-55.09-25.75-82.44-38.83-28.84-13.79-52.17-34.28-60.3-66.15-2.47-9.7-3.48-19.41-3.4-29.09,14.69,12.27,37.29,14.27,55.76,12.82,29.45-2.3,57.97-10.15,86.88,.03,23.33,8.22,43.69,25.03,55.3,46.86,7.08,13.31,10.93,28.3,11.16,43.35,.12,7.76-.64,15.55-2.29,23.14-1.39,6.41-4.33,14.59-6.31,18.31,.13-.24-4.37,7.49-2.92,8.5,1.46,1.01,7.21-5.84,7.03-5.63,9.15-10.22,17.59-21.99,24.02-34.12,12.61-23.8,18.04-49.7,12.45-76.31-5.01-23.88-19.04-44.82-38.91-59.04-20.8-14.87-45.35-20.44-70.67-18.33-26.57,2.21-54.06,10.18-80.28,1.37-11.79-3.96-22.4-11.38-27.83-22.77-2.31-4.83-3.77-10.13-3.88-15.49-.01-.63,0-1.27,.01-1.9-.85,2.66-2.08,5.19-3.65,7.62,1.25-3.38,2.53-6.75,3.82-10.09-.08,.82-.14,1.65-.17,2.47,.44-1.38,.79-2.8,1.04-4.24-.14,.22-.29,.44-.44,.66,.18-.46,.36-.93,.54-1.39-.04,.24-.06,.49-.1,.73,1.15-1.77,2.26-3.56,3.33-5.36,1.64-2.78,6.73-9.12,6.07-12.3-.56-2.68-2.13-.63-3.95,.87-10.35,8.49-18.33,20.55-25.61,31.58-5.59,8.46-11.41,17.44-14.07,27.33-.37,1.38-.64,2.79-.83,4.21-11.7,30.34-22.13,62.01-19.29,94.76,1.44,16.61,5.87,33.05,15.05,47.15,5.66,8.69,12.94,16.05,21.1,22.34-.65,.84-1.73,2.23-1.99,2.55-2.14,2.68-4.34,5.31-6.51,7.96-.26,.31-.44,.54-.59,.73-.05,.06-.1,.12-.17,.2-1.13,1.29-2.24,2.59-3.38,3.88-2.27,2.58-4.56,5.13-6.88,7.65-4.87,5.31-7.56,8.09-12.45,12.95-19.27,19.11-40.12,36.47-62.4,52-8.53,5.95-15.02,16.65-20.72,25.02-3.17,4.67-6.31,9.42-8.95,14.41-.38,.72-3.81,8.66-2.92,8.5,43.57-8,89.41,.04,127.92,21.79,39.03,22.04,68.32,57.87,82.87,100.04,7.31,21.17,10.89,43.5,10.23,65.88-.21,7.15-.95,14.18-2.06,21.14-6.72,5.03-13.69,9.77-20.72,14.05-40.51,24.68-88.94,42.74-137.06,40.55-23.32-1.06-45.8-7.68-65.14-20.88-21.09-14.39-37.77-35.25-47.71-58.64-10.23-24.08-13.27-50.64-9.79-76.49,1.71-12.69,4.9-25.22,9.94-37.01,.45-1.06,.92-2.11,1.39-3.16,.16-.35,.33-.7,.49-1.05,8.75-9.17,16.32-19.78,22.73-30.65,1.64-2.78,6.73-9.12,6.07-12.3-.53-2.56-2.24-.86-3.95,.87-14.74,14.92-27.51,31.65-38.9,49.21-8.83,13.61-16.97,27.9-22.66,43.12-8.9,23.81-12.68,49.05-9.85,74.38,5.65,50.61,38.37,98.76,88.41,114.8,.25,.08,.5,.15,.74,.22-1.66,1.59-3.19,3.49-3.29,3.59-15.23,16.13-28.53,35.23-38.76,54.87-6.18,11.86-10.85,24.55-12.7,37.83-3.25,23.39,1.67,48.35,15.34,67.84,27.81,39.64,80.69,50.33,126.38,46.89,59.78-4.51,114.51-33.05,173.52-41.73,49.31-7.25,99.89,1.83,144.4,23.88,49.66,24.6,91.27,64.98,114.84,115.14,.17,.37,.81,.07,1.64-.54-.25,1.37-.53,2.73-.88,4.08-.32,1.24-.66,2.48-1.1,3.68-.34,.87-.71,1.72-1.09,2.58-.15,.26-.36,.66-.67,1.23,.13-.24-4.37,7.49-2.92,8.5,1.46,1.01,7.21-5.84,7.03-5.63,9.23-10.31,17.31-22.04,24.02-34.12,7.28-13.12,11.8-27.08,10.78-42.18-.93-13.71-5.19-26.91-11.56-39.05-5.51-10.48-12.47-19.72-20.28-28.21,2.17-1.24,5.41-5.24,5.54-5.39,14.05-15.21,26.35-32.81,36.09-51.05,5.82-10.89,10.27-22.71,11.68-35.01,2.4-20.97-3.88-42.28-17.26-58.64ZM995.08,427.89c.29-.57,.6-1.12,.94-1.63,.24-.3,.13-.04-.94,1.63Zm.82-1.48c-2.62,3.73-.7,.92,0,0h0Zm483.95,169.75c.5-1.67,2.77-4.88,0,0h0Zm-283.78,231.55c-44.48,10.32-95.57,11.5-135.88-12.99-21.88-13.29-38.1-34.23-43.65-59.3-2.78-12.57-2.76-25.73-.33-38.36,.9-4.68,2.13-9.28,3.78-13.74,6.35-7.99,12-16.79,16.65-25.59,.38-.72,1.91-3.25,2.74-5.38,46.41,13.08,98.25-.56,140.62-20.4,22.66-10.61,43.89-23.92,63.23-39.74,4.35-3.56,8.55-7.29,12.64-11.13-2.05,7.48-4.34,14.93-6.7,22.38-7.53,23.81-15.47,48.62-12.96,73.9,2.11,21.26,11.44,40.71,27.18,55.35,17.37,16.16,40.67,24.46,64.4,22.33,25.76-2.31,47.5-15.29,64.44-34.31,9.18-10.3,17.57-21.93,24.02-34.12,.17-.33,.58-1.02,1.05-1.88-5.15,21.26-5.44,43.59-.63,64.99,2.28,10.12,5.81,19.55,10.34,28.39-20.68-5.55-42.06-8.46-63.56-8.38-58.15,.22-111.67,25.02-167.4,37.95Zm365.88,13.96c-.45,.85-2.48,4.18-3.1,6.46-11.52-12.17-24.76-22.82-37.96-33.4-22.45-17.99-45.54-36.74-59.09-62.64-11.31-21.62-15.73-46.22-13.82-70.44,4.67,9.36,12.11,17.36,21.54,22.76,18.37,10.54,40.23,12.23,59.78,19.79,19.6,7.58,35.56,22.31,44.21,41.44,5.05,11.16,7.25,23.24,6.3,35.45-.48,6.11-1.6,12.33-3.59,18.14-5.37,7.12-10.21,14.73-14.28,22.43Z"/><path class="cls-3" d="M1545.75,1166.87c-33.11-37.12-78.45-66.04-98.13-113.43-5.18-12.47-8.02-25.58-7.37-39.1,.29-6.14,1.22-12.26,2.8-18.2,.44-1.64,.95-3.24,1.52-4.83,4.12-5.78,7.9-11.8,11.17-17.99,.64-1.21,4.47-7.42,2.92-8.5-1.58-1.1-6.87,5.45-7.03,5.63-22.44,25.44-45.55,57.7-45.78,93.04-.17,25.65,11.02,49.44,26.15,69.67,10.15,13.56,22.16,25.65,34.6,37.42-34.1-7.37-70-12.17-100.32-30.55-24.46-14.83-41.66-38.73-49.62-65.97-4.43-15.15-5.89-31.03-4.24-46.72,.8-7.61,2.3-15.19,4.65-22.48,.98-3.05,2.27-5.96,3.49-8.92,.11-.27,.41-.91,.59-1.28,2.89-4.37,5.99-9.22,7.93-14.02,.9-2.23,2.11-4.4-.53-3.99-3.12,.48-8.03,8-9.54,9.88-4.77,5.9-9.18,12.07-13.38,18.39-18.6,28.01-30.85,58.5-27.6,92.52,2.64,27.67,13.69,54.63,33.47,74.57,51.39,51.82,135.43,34.42,193.59,74.01,14.61,9.94,26.37,23.54,33.23,39.85,3.22,7.66,5.4,15.87,5.72,24.18,.16,4.16-.09,8.33-.8,12.44-.38,2.18-.84,4.38-1.53,6.48-.18,.54-1.22,2.93-1.25,3.16-1.09,2-3.56,6.85-2.43,7.63,.25,.18,.64,.1,1.1-.12,.4,.33,1.42-.15,3.37-1.9,9.74-8.78,17.48-21.23,24.28-32.28,7.64-12.42,14.12-25.77,16.19-40.32,1.62-11.45,.73-23.23-1.75-34.49-5.35-24.34-19.01-45.35-35.45-63.77Zm-225.2-171.04c.08-.17,.19-.43,.31-.73,.07-.11,.14-.22,.22-.33-.12,.23-.28,.56-.53,1.06Zm1.48-2.82s-.44,.76-.84,1.43c-.04,.06-.09,.14-.14,.21,.29-.7,.64-1.44,.98-1.64Z"/><path class="cls-3" d="M1156.23,1013.52c-7.76-12.46-13.09-26.44-13.23-41.22v-.65c8.43-9.73,16.08-20.6,22.09-31.92,.64-1.21,4.47-7.42,2.91-8.5-1.58-1.11-6.87,5.44-7.03,5.63-1.86,2.07-3.7,4.15-5.54,6.22,.25-.38,.51-.75,.74-1.14,3.18-4.91,6.61-9.92,8.81-15.35,.3-.72,2.38-5.97-.52-3.99-17.93,12.21-31.36,32.66-42.08,50.94-4.28,7.27-7.97,14.79-10.43,22.67-10.63,14.42-20.51,29.36-29.3,45.08-16.32,29.19-27.13,62.07-22.06,95.73,10.37,68.78,86.42,83.97,129.54,126.59,11.59,11.46,20.69,25.06,24.72,40.96,1.81,7.14,2.54,14.49,1.96,21.84-.24,3.16-.7,6.37-1.47,9.46-2.59,3.79-5.02,7.66-7.31,11.53-1.65,2.78-6.73,9.11-6.06,12.29,.54,2.57,2.23,.84,3.95-.86,10.6-10.56,19.58-22.67,27.69-35.17,6.38-9.83,12.43-20.12,15.58-31.48,3.52-12.7,2.48-26.61-1.28-39.14-1.01-3.39-2.26-6.65-3.7-9.79,10.14-16.81,18.09-34.95,21.11-54.16,3.39-21.6,.77-44.58-8.44-64.49-21.6-46.65-73.92-68.19-100.64-111.08Zm75.95,210.72c-11.98-14.62-28.17-26.16-44.07-36.15-26.04-16.38-54.73-30.78-74.29-55.24-20.6-25.76-24.11-58.93-16.23-90.22,2.18-8.66,5.23-17.09,9.17-25.12,0,.06,1.78-3.36,1.99-3.79-.01,.27-.01,.53-.03,.8-.94,27.09,13.18,50.57,31.18,69.76,18,19.19,39.64,34.55,57.88,53.49,17.33,18.01,30.14,39.21,33.65,64.18,1.04,7.35,1.26,14.84,.74,22.28Z"/></g><g><path class="cls-4" d="M1147.64,702.07c-2.18-2.35-18.56,20.18-19.89,22.1-3.97,5.71-7.9,11.51-11.16,17.65-.79,1.5-4.37,6.94-2.92,8.5l53.06,57c2.18,2.35,18.56-20.18,19.89-22.1,3.97-5.71,7.9-11.51,11.16-17.65,.79-1.5,4.37-6.94,2.92-8.5l-53.06-57Z"/><path class="cls-4" d="M1345.56,926.19c9.57,11.37,19.13,22.74,28.7,34.1,1.93,2.3,18.6-20.24,19.89-22.1,3.97-5.71,7.9-11.51,11.16-17.65,.83-1.58,4.33-6.82,2.92-8.5-9.81-11.66-19.62-23.31-29.43-34.97-1.56,.15-2.82,.91-3.79,2.27-13.19,13.65-29.9,29.14-50.34,28.58-15.2-.42-33.62-10.59-34.54-27.32-.16-2.93-2.68-.26-3.95,.87-4.27,3.81-8.1,8.96-11.49,13.49-4.53,6.06-8.94,12.28-12.79,18.8-1.88,3.18-6.27,8.57-6.07,12.3,1.02,18.63,18.54,30.37,36.43,30.13,21.23-.28,38.99-15.53,53.29-30Z"/><path class="cls-4" d="M1053.27,942.7c3.66-8.26,4.54-16.45,2.04-25.18-5.29-18.52-22.79-28.72-38.56-37.61-3.84-2.17-18.07,19.48-19.89,22.1-1.4,2.01-17.21,24.39-14.07,26.15,15.5,8.74,32.7,18.72,38.31,36.74,.35,1.13,.64,2.27,.87,3.42-1.07,1.02-2.12,2.06-3.13,3.16-7.77,8.42-14.6,17.88-20.89,27.41-4.57,6.91-9.34,14.18-12.44,21.89-3.19,7.93-4.35,16.99,1.95,23.8,8.62,9.31,37.68,12.71,33.11,30.34-.96,3.7,4.17-1.06,3.95-.87,4.27-3.81,8.1-8.96,11.49-13.49,6.78-9.07,15.94-19.85,18.86-31.1,4.93-19.03-20.44-22.4-31.01-30.9-2.14-1.72-4.05-3.88-5.29-6.35,.17-.17,.35-.34,.52-.52,13.42-13.83,26.38-31.35,34.19-49Zm-11.48,9.07c2.45-1.76-1.24,1-1.77,1.45-2.57,2.19-5.2,4.27-7.81,6.35,2.68-2.51,5.83-5.12,9.57-7.8Zm-19.39,19.45c.21,2.11,.18,4.25-.12,6.39-1.56,11.07-7.28,5.71,.12-6.39Z"/><path class="cls-4" d="M1309.67,324.03c3.17-4.91,6.6-9.93,8.81-15.35,.28-.69,2.35-6.04-.53-3.99l-227.02,161.39c-9.52,6.77-16.69,18.61-22.92,28.26-3.17,4.91-6.6,9.93-8.81,15.35-.28,.69-2.35,6.04,.53,3.99,75.67-53.8,151.35-107.6,227.02-161.39,9.52-6.77,16.69-18.61,22.92-28.26Z"/><path class="cls-4" d="M1339.87,598.04c23.81-14.18,50.07-23.22,77.38-26.69-14.05,13.14-28.11,26.27-42.16,39.41-9.68,9.05-17.59,20.94-24.28,32.28-1.51,2.55-10.41,19.18-2.11,11.43,31.01-28.99,62.02-57.97,93.03-86.96,7.96-7.44,14.64-17.22,20.52-26.32,2.33-3.61,4.62-7.26,6.67-11.03-.06,.06,4.41-8.67,2.99-8.63-35.5,.82-70.35,10.76-100.83,28.9-3.6,2.14-7.04,6.82-9.54,9.88-4.78,5.83-9.3,12.06-13.38,18.39-3.17,4.91-6.6,9.93-8.81,15.35-.35,.86-2.42,5.75,.53,3.99Z"/><path class="cls-4" d="M1468.98,530.04s-.05,.09-.08,.13c0,0,.03-.05,.08-.13Z"/><path class="cls-4" d="M1572.29,838.06c-.56-2.67-2.14-.65-3.95,.87-74.51,62.49-149.02,124.98-223.54,187.47-4.3,3.6-8.17,9.1-11.49,13.49-4.54,6-8.97,12.31-12.79,18.8-1.64,2.78-6.73,9.12-6.07,12.3,.56,2.67,2.14,.65,3.95-.87,74.51-62.49,149.02-124.98,223.54-187.47,4.3-3.6,8.17-9.1,11.49-13.49,4.54-6,8.97-12.31,12.79-18.8,1.64-2.78,6.73-9.12,6.07-12.3Z"/></g></g></g></g></g></svg>