<?xml version="1.0" encoding="UTF-8"?><svg id="Layer_2" xmlns="http://www.w3.org/2000/svg" viewBox="0 0 269 852.81"><defs><style>.cls-1{fill:#012623;}.cls-2{fill:#30bf97;}.cls-3{fill:#fff;fill-rule:evenodd;}</style></defs><g id="profile"><g><path class="cls-1" d="M260.94,283.8s-94.95-70.02-93.81-85.52c1.14-15.5,8.24-21.87,6.77-27.35-1.46-5.49-81.08-164.6-99.08-159.88C76.14,7.26,0,0,0,0V819.2H.61c.4-13.02,5.6-27.76,22.1-40.22,6.77-6.59,16.7-4.76,16.7-4.76,17.39,24.28,33.78,37.79,48.72,44.98,51.91,25.01,86.39-26.24,85.41,33.61,16.1-10.15,28.81-21.5,38.58-33.61,39.32-48.71,31.19-109.81,5.49-155.55-15.91-28.34,38.17-113.87,2.27-148.32,27.61-23.8,2.63-68.18,2.63-68.18,20.05-17.63,15.83-36.6,15.83-36.6-13.89-7.76-22.98-50.85-22.98-50.85,82.01-44.85,45.59-75.89,45.59-75.89Zm-73.46,499.01c2.73-13.73-6.72-27.17-17.99-35.09-11.3-7.94-24.67-12.32-36.04-20.11-5.21-3.56-10.06-8.24-13.59-13.57v-.02c-4.2-6.34-6.5-13.64-5.29-21.14-1.88,10.18-.78,20.68,2.65,30.37,6.19,17.58,20.02,32.53,37.53,38.15-14.8,7.84-33.61,6.84-47.79-1.99-1.9-1.18-3.7-2.51-5.42-3.96-14.52-12.4-20.77-33.99-15.2-52.47,4.49-14.89,15.87-30.26,9.34-44.33-4.31-9.28-14.72-13.37-23.51-18.34-4.6-2.6-8.93-5.67-12.92-9.14-21.61-18.71-33.77-48.83-30.16-77.67,1.31,20.64,12.66,40.35,29.66,51.56-7.35-5.59-14.93-43.22-9.33-50.31,6.91-8.75,17.29,7.28,25.5,16.44,1.85,2.07,3.59,3.78,5.15,4.79,12.8,8.2,27.65,13.36,38.7,23.9,10.76,10.29,16.63,24.42,23.13,38.11,1.82,3.87,3.7,7.69,5.76,11.4,12.31,22.17,31.18,40.02,43.07,62.44,11.9,22.4,14.84,53.44-3.26,70.98Zm-15.78-224.36c2.6,4.52,4.71,9.34,6.21,14.35,5.01,16.49,3.68,34.92-3.65,50.49-1.2-12.13-5.27-23.85-11.52-34.22-8.95-14.83-22.38-26.87-38.24-33.34,4.59-6.84,14.33-9.45,21.61-5.79-14.21-17.36-28.43-34.72-42.63-52.07,2.33,2.67,25.72-10.29,31.2-9.99,10.86,.6,23.95,12.5,31.51,19.69,5.67,5.39,10.76,11.42,15.16,17.94,9.63,14.31,15.93,30.96,17.56,48.28-5.17-11.35-13.39-21.14-23.38-28.34-8.49-6.14-18.27-10.4-28.53-12.19,10.2,6,18.77,14.82,24.71,25.19Zm44.72-137.45c-5.03-2.69-10.69-4.03-16.28-3.89-5.64,.13-11.23,1.78-16.07,5.09-8.58,5.85-13.73,15.66-21.31,22.82-9.67,9.14-23.44,13.54-36.48,11.67-5.78-.82-11.37-2.88-16.38-5.91-2.53-1.54-4.91-3.3-7.1-5.28l1.04-3.98c4.75,2.15,9.97,3.27,15.21,3.38,12.05,.28,24.32-4.7,31.73-14.5-4.82,2.45-10.17,3.72-15.56,3.86-8.13,.22-16.34-2.14-22.98-6.95,8.57,3.6,18.7,.09,25.83-5.98,12.6-10.71,23.39-42.87,43.05-41.61,6.18,.41,11.43,4.84,16.08,10.79,2.63,3.36,5.06,7.2,7.35,11.08,4.37,7.4,8.2,14.92,11.89,19.42Z"/><g><path class="cls-3" d="M126.71,456.69c13.33,1.88,27.42-2.53,37.3-11.67,7.75-7.15,13.01-16.97,21.78-22.82,4.95-3.3,10.67-4.96,16.44-5.09,5.72-.15,11.5,1.2,16.65,3.89-3.77-4.5-7.69-12.01-12.16-19.41-2.33-3.88-4.81-7.72-7.51-11.08-4.75-5.94-10.12-10.38-16.44-10.79-20.11-1.27-31.14,30.89-44.02,41.61-7.29,6.07-17.65,9.58-26.41,5.98,6.79,4.82,15.19,7.17,23.5,6.95,5.52-.14,10.98-1.41,15.91-3.86-7.57,9.8-20.12,14.78-32.44,14.5-5.36-.11-10.7-1.23-15.55-3.38l-1.06,3.98c2.24,1.98,4.67,3.74,7.25,5.28,5.13,3.03,10.85,5.09,16.76,5.91Zm74.25,117.1c-1.67-17.32-8.1-33.97-17.95-48.28-4.5-6.52-9.69-12.55-15.49-17.94-7.74-7.19-21.12-19.09-32.22-19.69-5.6-.3-29.52,12.66-31.89,9.99,14.53,17.36,29.06,34.72,43.59,52.07-7.45-3.66-17.4-1.05-22.1,5.79,16.21,6.47,29.95,18.51,39.09,33.34,6.4,10.37,10.56,22.08,11.79,34.22,7.49-15.57,8.85-34,3.73-50.49-1.54-5.02-3.69-9.83-6.34-14.35-6.08-10.38-14.84-19.2-25.27-25.19,10.49,1.78,20.48,6.05,29.16,12.19,10.22,7.21,18.62,16.99,23.9,28.34Zm-52.37,75.6c-2.1-3.7-4.02-7.53-5.89-11.4-6.64-13.69-12.64-27.83-23.65-38.11-11.3-10.54-26.48-15.7-39.57-23.9-1.6-1.01-3.38-2.72-5.27-4.79-8.39-9.16-19-25.19-26.06-16.44-5.73,7.09,2.01,44.72,9.54,50.31-17.39-11.2-28.99-30.91-30.33-51.55-3.7,28.84,8.74,58.96,30.83,77.67,4.08,3.47,8.5,6.54,13.21,9.14,8.98,4.97,19.62,9.06,24.03,18.34,6.68,14.07-4.96,29.44-9.55,44.33-5.69,18.48,.7,40.07,15.55,52.47,1.75,1.45,3.6,2.78,5.53,3.96,14.5,8.84,33.72,9.83,48.86,1.99-17.9-5.62-32.04-20.57-38.37-38.15-3.5-9.69-4.63-20.2-2.7-30.37-1.24,7.51,1.12,14.8,5.41,21.14v.02c3.61,5.33,8.57,10.01,13.89,13.57,11.63,7.78,25.3,12.17,36.85,20.11,11.53,7.92,21.19,21.36,18.4,35.09,18.5-17.54,15.5-48.58,3.33-70.98-12.16-22.42-31.45-40.27-44.04-62.44Z"/><path class="cls-2" d="M177.06,545.44c-8.68-6.13-18.68-10.4-29.16-12.19,10.43,6,19.19,14.82,25.27,25.19,2.66,4.52,4.81,9.34,6.34,14.35,5.12,16.49,3.76,34.92-3.73,50.49-1.23-12.13-5.39-23.85-11.79-34.22-9.15-14.83-22.88-26.87-39.09-33.34,4.7-6.84,14.65-9.45,22.1-5.79-14.53-17.36-29.06-34.72-43.59-52.07,2.38,2.67,26.3-10.29,31.89-9.99,11.1,.6,24.48,12.5,32.22,19.69,5.8,5.39,11,11.42,15.49,17.94,9.85,14.31,16.28,30.96,17.95,48.28-5.28-11.35-13.68-21.14-23.9-28.34Z"/><path class="cls-2" d="M189.29,782.81c2.79-13.73-6.86-27.17-18.4-35.09-11.55-7.94-25.22-12.32-36.85-20.11-5.32-3.56-10.28-8.24-13.89-13.57v-.02c-4.29-6.34-6.64-13.64-5.41-21.14-1.93,10.18-.8,20.68,2.7,30.37,6.34,17.58,20.47,32.53,38.37,38.15-15.14,7.84-34.36,6.84-48.86-1.99-1.94-1.18-3.79-2.51-5.53-3.96-14.85-12.4-21.24-33.99-15.55-52.47,4.59-14.89,16.23-30.26,9.55-44.33-4.41-9.28-15.05-13.37-24.03-18.34-4.71-2.6-9.13-5.67-13.21-9.14-22.09-18.71-34.52-48.83-30.83-77.67,1.34,20.64,12.94,40.35,30.33,51.55-7.53-5.59-15.26-43.22-9.54-50.31,7.06-8.75,17.67,7.28,26.06,16.44,1.89,2.07,3.67,3.78,5.27,4.79,13.09,8.2,28.27,13.36,39.57,23.9,11,10.29,17,24.42,23.65,38.11,1.87,3.87,3.79,7.69,5.89,11.4,12.59,22.17,31.88,40.02,44.04,62.44,12.17,22.4,15.17,53.44-3.33,70.98Z"/><path class="cls-2" d="M218.88,421c-5.15-2.69-10.93-4.03-16.65-3.89-5.77,.13-11.49,1.78-16.44,5.09-8.77,5.85-14.04,15.66-21.78,22.82-9.88,9.14-23.97,13.54-37.3,11.67-5.91-.82-11.62-2.88-16.76-5.91-2.59-1.54-5.02-3.29-7.25-5.28l1.06-3.98c4.85,2.15,10.19,3.27,15.55,3.38,12.32,.28,24.87-4.7,32.44-14.5-4.93,2.45-10.39,3.72-15.91,3.86-8.31,.22-16.71-2.14-23.5-6.95,8.77,3.6,19.12,.09,26.41-5.98,12.88-10.71,23.91-42.87,44.02-41.61,6.32,.41,11.69,4.84,16.44,10.79,2.69,3.36,5.18,7.2,7.51,11.08,4.47,7.4,8.39,14.92,12.16,19.41Z"/></g></g></g></svg>